<svg xmlns="http://www.w3.org/2000/svg" width="1100" height="500" viewBox="0 0 1100 500">
<rect width="1100" height="500" fill="#07111f"/>
<rect x="90" y="80" width="920" height="340" rx="18" fill="#0d2035" stroke="#8fb9d9" stroke-width="4"/>
<rect x="120" y="105" width="30" height="290" fill="#d8e6ef"/><rect x="950" y="105" width="30" height="290" fill="#d8e6ef"/>
<text x="105" y="65" fill="white" font-family="sans-serif" font-size="25">0 V electrode</text><text x="865" y="65" fill="white" font-family="sans-serif" font-size="25">1 V readout electrode</text>
<defs><marker id="a" markerWidth="10" markerHeight="10" refX="9" refY="3" orient="auto"><path d="M0,0 L0,6 L9,3 z" fill="#ffcc66"/></marker></defs>
<g stroke="#4ea3d8" stroke-width="3" opacity=".85"><path d="M150 140 C380 140 720 140 950 140"/><path d="M150 200 C380 200 720 200 950 200"/><path d="M150 260 C380 260 720 260 950 260"/><path d="M150 320 C380 320 720 320 950 320"/><path d="M150 380 C380 380 720 380 950 380"/></g>
<circle cx="500" cy="255" r="22" fill="#ff6b6b"/><text x="488" y="264" fill="white" font-family="sans-serif" font-size="25">q</text>
<path d="M535 255 L700 255" stroke="#ffcc66" stroke-width="7" marker-end="url(#a)"/><text x="590" y="240" fill="#ffcc66" font-family="sans-serif" font-size="25">v</text>
<text x="370" y="455" fill="white" font-family="sans-serif" font-size="28">i = q v · E_w    |    E_w = −∇φ_w</text>
</svg>